<?xml version="1.0" encoding="utf-8"?>
<!-- Generator: Adobe Illustrator 24.0.3, SVG Export Plug-In . SVG Version: 6.00 Build 0)  -->
<svg version="1.1" id="icon" xmlns="http://www.w3.org/2000/svg" xmlns:xlink="http://www.w3.org/1999/xlink" x="0px" y="0px"
	 viewBox="0 0 18 18" style="enable-background:new 0 0 18 18;" xml:space="preserve">
<style type="text/css">
	.st0{fill:none;}
	.st1{opacity:0.15;enable-background:new    ;}
	.st2{fill:#46C8FF;}
</style>
<rect class="st0" width="18" height="18"/>
<path class="st1" d="M8.3,2.7C8.2,2.6,8.1,2.5,8,2.5c-0.1,0-0.2,0.1-0.3,0.1C7.3,3.2,4,7.7,4,9.7c0,2.1,1.8,3.8,4,3.8s4-1.7,4-3.8
	C12,7.7,8.7,3.2,8.3,2.7L8.3,2.7z M8,12.1c0,0.3-0.3,0.4-0.5,0.4H7.4c-1.9-0.3-2.4-2.1-2.5-3C4.9,9.2,5.1,9,5.4,9l0,0
	C5.7,8.9,6,9.2,6,9.5c0,0.1,0.1,1.8,1.6,2C7.8,11.5,8,11.8,8,12.1L8,12.1z"/>
<path class="st2" d="M9.3,3.7C9.2,3.6,9.1,3.5,9,3.5S8.8,3.6,8.7,3.6C8.3,4.2,5,8.7,5,10.7c0,2.1,1.8,3.8,4,3.8s4-1.7,4-3.8
	C13,8.7,9.7,4.2,9.3,3.7L9.3,3.7z M9,13.1c0,0.3-0.3,0.4-0.5,0.4H8.4c-1.9-0.3-2.4-2.1-2.5-3c0-0.3,0.2-0.5,0.5-0.5l0,0
	c0.3,0,0.5,0.2,0.5,0.5c0,0.1,0.1,1.8,1.6,2C8.8,12.5,9,12.8,9,13.1L9,13.1z"/>
</svg>
