<?xml version="1.0" encoding="utf-8"?>
<!-- Generator: Adobe Illustrator 20.1.0, SVG Export Plug-In . SVG Version: 6.00 Build 0)  -->
<svg version="1.1" id="Search" xmlns="http://www.w3.org/2000/svg" xmlns:xlink="http://www.w3.org/1999/xlink" x="0px" y="0px"
	 viewBox="0 0 18 18" style="enable-background:new 0 0 18 18;" xml:space="preserve">
<style type="text/css">
	.st0{fill:none;}
	.st1{opacity:0.3;enable-background:new    ;}
	.st2{fill:#969696;}
</style>
<rect y="0" class="st0" width="18" height="18"/>
<path class="st1" d="M9.6,2l2.9,2.5V14h-9V2H9.6 M10,1H2.5v14h11V4L10,1L10,1z M9,8V5H7v3H5l3,4l3-4H9z"/>
<path class="st2" d="M10.6,3l2.9,2.5V15h-9V3H10.6 M11,2H3.5v14h11V5L11,2L11,2z M10,9V6H8v3H6l3,4l3-4H10z"/>
</svg>
