<?xml version="1.0" encoding="utf-8"?>
<!-- Generator: Adobe Illustrator 20.1.0, SVG Export Plug-In . SVG Version: 6.00 Build 0)  -->
<svg version="1.1" id="icon" xmlns="http://www.w3.org/2000/svg" xmlns:xlink="http://www.w3.org/1999/xlink" x="0px" y="0px"
	 viewBox="0 0 18 18" style="enable-background:new 0 0 18 18;" xml:space="preserve">
<style type="text/css">
	.st0{fill:none;}
	.st1{opacity:0.18;}
	.st2{fill:#46C8FF;}
</style>
<rect class="st0" width="18" height="18"/>
<path class="st1" d="M8,6.3l0-1.8c0.9,0,1.8,0.3,2.4,1c0.7,0.7,1,1.6,1,2.5c0,0.9-0.3,1.8-1,2.5l1.1,1.1c2-2,2-5.1,0-7.1
	C10.6,3.5,9.3,3,8,3V1.4L5.6,3.8L8,6.3z M8,11.5c-0.9,0-1.8-0.3-2.5-1c-0.7-0.7-1-1.6-1-2.5c0-0.9,0.3-1.8,1-2.5L4.5,4.5
	c-2,2-2,5.1,0,7.1c1,1,2.3,1.5,3.6,1.5l0,1.6l2.4-2.4L8,9.8L8,11.5z"/>
<path class="st2" d="M9,7.3l0-1.8c0.9,0,1.8,0.3,2.4,1c0.7,0.7,1,1.6,1,2.5c0,0.9-0.3,1.8-1,2.5l1.1,1.1c2-2,2-5.1,0-7.1
	C11.6,4.5,10.3,4,9,4V2.4L6.6,4.8L9,7.3z M9,12.5c-0.9,0-1.8-0.3-2.5-1c-0.7-0.7-1-1.6-1-2.5c0-0.9,0.3-1.8,1-2.5L5.5,5.5
	c-2,2-2,5.1,0,7.1c1,1,2.3,1.5,3.6,1.5l0,1.6l2.4-2.4L9,10.8L9,12.5z"/>
</svg>
