<?xml version="1.0" encoding="utf-8"?>
<!-- Generator: Adobe Illustrator 20.1.0, SVG Export Plug-In . SVG Version: 6.00 Build 0)  -->
<svg version="1.1" id="Search" xmlns="http://www.w3.org/2000/svg" xmlns:xlink="http://www.w3.org/1999/xlink" x="0px" y="0px"
	 viewBox="0 0 18 18" style="enable-background:new 0 0 18 18;" xml:space="preserve">
<style type="text/css">
	.st0{fill:none;}
	.st1{opacity:0.15;enable-background:new    ;}
	.st2{fill:#969696;}
</style>
<rect y="0" class="st0" width="18" height="18"/>
<path class="st1" d="M12.9,11.4L12.9,11.4L12.9,11.4L10.4,9c0.3-0.6,0.5-1.2,0.5-2c0-2.2-1.7-4-3.9-4l0,0C4.8,3,3,4.8,3,6.9
	c0,2.2,1.7,4,3.9,4l0,0c0.7,0,1.4-0.2,2-0.5l2.4,2.4l0,0l0.1,0.1c0.2,0.2,0.5,0.2,0.7,0l0.8-0.8C13,11.9,13,11.6,12.9,11.4z
	 M6.9,9.9C5.3,9.9,4,8.6,4,6.9C4,5.3,5.3,4,7,4l0,0c0.8,0,1.5,0.3,2.1,0.9C9.6,5.5,9.9,6.2,9.9,7S9.6,8.5,9,9.1
	C8.5,9.6,7.7,9.9,6.9,9.9L6.9,9.9z"/>
<path class="st2" d="M13.9,12.4L13.9,12.4L13.9,12.4L11.4,10c0.3-0.6,0.5-1.2,0.5-2c0-2.2-1.7-4-3.9-4l0,0C5.8,4,4,5.8,4,7.9
	c0,2.2,1.7,4,3.9,4l0,0c0.7,0,1.4-0.2,2-0.5l2.4,2.4l0,0l0.1,0.1c0.2,0.2,0.5,0.2,0.7,0l0.8-0.8C14,12.9,14,12.6,13.9,12.4z
	 M7.9,10.9c-1.6,0-2.9-1.3-2.9-3C5,6.3,6.3,5,8,5l0,0c0.8,0,1.5,0.3,2.1,0.9S11,7.2,11,8s-0.3,1.5-0.9,2.1
	C9.5,10.6,8.7,10.9,7.9,10.9L7.9,10.9z"/>
</svg>
