<?xml version="1.0" encoding="utf-8"?>
<!-- Generator: Adobe Illustrator 20.1.0, SVG Export Plug-In . SVG Version: 6.00 Build 0)  -->
<svg version="1.1" id="icon" xmlns="http://www.w3.org/2000/svg" xmlns:xlink="http://www.w3.org/1999/xlink" x="0px" y="0px"
	 viewBox="0 0 18 18" style="enable-background:new 0 0 18 18;" xml:space="preserve">
<style type="text/css">
	.st0{fill:none;}
	.st1{opacity:0.2;enable-background:new    ;}
	.st2{fill:#969696;}
</style>
<rect y="0" class="st0" width="18" height="18"/>
<path class="st1" d="M11,7H5V3h4v2h1V3h1V7z M12,3v4v1h-1H5H4V7V3C3.5,3,3,3.5,3,4v8c0,0.5,0.5,1,1,1h8c0.5,0,1-0.5,1-1V4
	C13,3.5,12.5,3,12,3z"/>
<path class="st2" d="M12,8H6V4h4v2h1V4h1V8z M13,4v4v1h-1H6H5V8V4C4.5,4,4,4.5,4,5v8c0,0.5,0.5,1,1,1h8c0.5,0,1-0.5,1-1V5
	C14,4.5,13.5,4,13,4z"/>
</svg>
