<?xml version="1.0" encoding="utf-8"?>
<!-- Generator: Adobe Illustrator 20.1.0, SVG Export Plug-In . SVG Version: 6.00 Build 0)  -->
<svg version="1.1" id="Search" xmlns="http://www.w3.org/2000/svg" xmlns:xlink="http://www.w3.org/1999/xlink" x="0px" y="0px"
	 viewBox="0 0 18 18" style="enable-background:new 0 0 18 18;" xml:space="preserve">
<style type="text/css">
	.st0{fill:none;}
	.st1{opacity:0.3;enable-background:new    ;}
	.st2{fill:#46C8FF;}
</style>
<rect y="0" class="st0" width="18" height="18"/>
<path class="st1" d="M12.2,10.5L9.7,8l2.5-2.5c0.4-0.4,0.4-1.3,0-1.7s-1.3-0.4-1.7,0L8,6.3L5.5,3.8c-0.4-0.4-1.3-0.4-1.7,0
	c-0.4,0.4-0.4,1.3,0,1.7L6.3,8l-2.5,2.5c-0.4,0.4-0.4,1.3,0,1.7s1.3,0.4,1.7,0L8,9.7l2.5,2.5c0.4,0.4,1.3,0.4,1.7,0
	S12.6,10.9,12.2,10.5z"/>
<path class="st2" d="M13.2,11.5L10.7,9l2.5-2.5c0.4-0.4,0.4-1.3,0-1.7c-0.4-0.4-1.3-0.4-1.7,0L9,7.3L6.5,4.8c-0.4-0.4-1.3-0.4-1.7,0
	c-0.4,0.4-0.4,1.3,0,1.7L7.3,9l-2.5,2.5c-0.4,0.4-0.4,1.3,0,1.7s1.3,0.4,1.7,0L9,10.7l2.5,2.5c0.4,0.4,1.3,0.4,1.7,0
	S13.6,11.9,13.2,11.5z"/>
</svg>
