<?xml version="1.0" encoding="utf-8"?>
<!-- Generator: Adobe Illustrator 20.1.0, SVG Export Plug-In . SVG Version: 6.00 Build 0)  -->
<svg version="1.1" id="레이어_1" xmlns="http://www.w3.org/2000/svg" xmlns:xlink="http://www.w3.org/1999/xlink" x="0px"
	 y="0px" viewBox="0 0 18 18" style="enable-background:new 0 0 18 18;" xml:space="preserve">
<style type="text/css">
	.st0{fill:none;}
	.st1{opacity:0.3;}
	.st2{fill:#969696;}
</style>
<rect y="0" class="st0" width="18" height="18"/>
<g class="st1">
	<path d="M13.6,5.8l-6.4,6.4c-0.4,0.4-1,0.4-1.4,0l-0.7-0.7c-0.4-0.4-0.4-1,0-1.4l6.4-6.4c0.4-0.4,1-0.4,1.4,0l0.7,0.7
		C14,4.8,14,5.5,13.6,5.8z"/>
	<path d="M5.8,12.2L2.3,8.7c-0.4-0.4-0.4-1.1,0-1.4L3,6.6c0.4-0.4,1-0.4,1.4,0l3.5,3.5c0.4,0.4,0.4,1,0,1.4l-0.7,0.7
		C6.9,12.6,6.2,12.6,5.8,12.2z"/>
</g>
<g>
	<path class="st2" d="M14.7,6.8l-6.4,6.4c-0.4,0.4-1,0.4-1.4,0l-0.7-0.7c-0.4-0.4-0.4-1,0-1.4l6.4-6.4c0.4-0.4,1-0.4,1.4,0l0.7,0.7
		C15.1,5.8,15.1,6.4,14.7,6.8z"/>
	<path class="st2" d="M6.9,13.2L3.3,9.6c-0.4-0.4-0.4-1,0-1.4L4,7.5c0.4-0.4,1-0.4,1.4,0L8.9,11c0.4,0.4,0.4,1,0,1.4l-0.7,0.8
		C8,13.6,7.2,13.6,6.9,13.2z"/>
</g>
</svg>
