<?xml version="1.0" encoding="utf-8"?>
<!-- Generator: Adobe Illustrator 24.0.3, SVG Export Plug-In . SVG Version: 6.00 Build 0)  -->
<svg version="1.1" id="icon" xmlns="http://www.w3.org/2000/svg" xmlns:xlink="http://www.w3.org/1999/xlink" x="0px" y="0px"
	 viewBox="0 0 18 18" style="enable-background:new 0 0 18 18;" xml:space="preserve">
<style type="text/css">
	.st0{fill:none;}
	.st1{opacity:0.15;enable-background:new    ;}
	.st2{fill:#46C8FF;}
</style>
<rect class="st0" width="18" height="18"/>
<path class="st1" d="M7,4v2c0,0.6-0.4,1-1,1H4C3.5,7,3,6.6,3,6V4c0-0.5,0.5-1,1-1h2C6.6,3,7,3.5,7,4z M12,3h-2C9.4,3,9,3.5,9,4v2
	c0,0.6,0.4,1,1,1h2c0.6,0,1-0.4,1-1V4C13,3.5,12.6,3,12,3z M6,9H4c-0.5,0-1,0.4-1,1v2c0,0.6,0.5,1,1,1h2c0.6,0,1-0.4,1-1v-2
	C7,9.4,6.6,9,6,9z M12,9h-2c-0.6,0-1,0.4-1,1v2c0,0.6,0.4,1,1,1h2c0.6,0,1-0.4,1-1v-2C13,9.4,12.6,9,12,9z"/>
<path class="st2" d="M8,5v2c0,0.6-0.4,1-1,1H5C4.4,8,4,7.6,4,7V5c0-0.6,0.4-1,1-1h2C7.6,4,8,4.4,8,5z M13,4h-2c-0.6,0-1,0.4-1,1v2
	c0,0.6,0.4,1,1,1h2c0.6,0,1-0.4,1-1V5C14,4.4,13.6,4,13,4z M7,10H5c-0.6,0-1,0.4-1,1v2c0,0.6,0.4,1,1,1h2c0.6,0,1-0.4,1-1v-2
	C8,10.4,7.6,10,7,10z M13,10h-2c-0.6,0-1,0.4-1,1v2c0,0.6,0.4,1,1,1h2c0.6,0,1-0.4,1-1v-2C14,10.4,13.6,10,13,10z"/>
</svg>
