<?xml version="1.0" encoding="utf-8"?>
<!-- Generator: Adobe Illustrator 20.1.0, SVG Export Plug-In . SVG Version: 6.00 Build 0)  -->
<svg version="1.1" id="Search" xmlns="http://www.w3.org/2000/svg" xmlns:xlink="http://www.w3.org/1999/xlink" x="0px" y="0px"
	 viewBox="0 0 18 18" style="enable-background:new 0 0 18 18;" xml:space="preserve">
<style type="text/css">
	.st0{fill:none;}
	.st1{opacity:0.15;enable-background:new    ;}
	.st2{fill:#969696;}
</style>
<rect y="0" class="st0" width="18" height="18"/>
<path class="st1" d="M12,7H9V4c0-0.5-0.5-1-1-1S7,3.5,7,4v3H4C3.5,7,3,7.5,3,8s0.5,1,1,1h3v3c0,0.5,0.5,1,1,1s1-0.5,1-1V9h3
	c0.5,0,1-0.5,1-1S12.5,7,12,7z"/>
<path class="st2" d="M13,8h-3V5c0-0.5-0.5-1-1-1S8,4.5,8,5v3H5C4.5,8,4,8.5,4,9s0.5,1,1,1h3v3c0,0.5,0.5,1,1,1s1-0.5,1-1v-3h3
	c0.5,0,1-0.5,1-1S13.5,8,13,8z"/>
</svg>
