<?xml version="1.0" encoding="utf-8"?>
<!-- Generator: Adobe Illustrator 20.1.0, SVG Export Plug-In . SVG Version: 6.00 Build 0)  -->
<svg version="1.1" id="Search" xmlns="http://www.w3.org/2000/svg" xmlns:xlink="http://www.w3.org/1999/xlink" x="0px" y="0px"
	 viewBox="0 0 18 18" style="enable-background:new 0 0 18 18;" xml:space="preserve">
<style type="text/css">
	.st0{fill:#2D2D2F;}
	.st1{opacity:1.000000e-02;fill:#FFFFFF;}
	.st2{fill:#262628;}
	.st3{opacity:0.15;}
	.st4{fill:#3C3C3E;}
</style>
<path class="st0" d="M14,18H4c-2.2,0-4-1.8-4-4V4c0-2.2,1.8-4,4-4h10c2.2,0,4,1.8,4,4v10C18,16.2,16.2,18,14,18z"/>
<polygon class="st1" points="17,1 2,1 1,1 1,2 1,17 2,17 2,2 17,2 "/>
<g>
	<path class="st2" d="M14,1c1.7,0,3,1.3,3,3v10c0,1.7-1.3,3-3,3H4c-1.7,0-3-1.3-3-3V4c0-1.7,1.3-3,3-3H14 M14,0H4C1.8,0,0,1.8,0,4
		v10c0,2.2,1.8,4,4,4h10c2.2,0,4-1.8,4-4V4C18,1.8,16.2,0,14,0L14,0z"/>
</g>
<polygon class="st3" points="12,6 9,11 6,6 "/>
<polygon class="st4" points="12,7 9,12 6,7 "/>
</svg>
